PathFileType	4	(X/Y/Z)	C:\Users\Biomechanik\SynologyDrive\AlexP\Athlete_03\Athlete_3_22_07_06\sq_75_EMG\marker_experimental.trc
DataRate	CameraRate	NumFrames	NumMarkers	Units	OrigDataRate	OrigDataStartFrame	OrigNumFrames
200.000000	200.000000	4	58	mm	200.000000	0	1310
Frame#	Time	BL			BR			Athlete_3_RUA2_Opt:GLAB			Athlete_3_RUA2_Opt:RFHD			Athlete_3_RUA2_Opt:LFHD			Athlete_3_RUA2_Opt:C7			Athlete_3_RUA2_Opt:T6			Athlete_3_RUA2_Opt:SPINMOL			Athlete_3_RUA2_Opt:SPINM2			Athlete_3_RUA2_Opt:SPINM3			Athlete_3_RUA2_Opt:T12			Athlete_3_RUA2_Opt:BELTOL			Athlete_3_RUA2_Opt:BELT2			Athlete_3_RUA2_Opt:BELT3			Athlete_3_RUA2_Opt:SACROL			Athlete_3_RUA2_Opt:SACR2			Athlete_3_RUA2_Opt:SACR3			Athlete_3_RUA2_Opt:LTHOL			Athlete_3_RUA2_Opt:LTH2			Athlete_3_RUA2_Opt:LTH3			Athlete_3_RUA2_Opt:LSHAOL			Athlete_3_RUA2_Opt:LSHA2			Athlete_3_RUA2_Opt:LSHA3			Athlete_3_RUA2_Opt:LHEE			Athlete_3_RUA2_Opt:LTOE			Athlete_3_RUA2_Opt:LM5			Athlete_3_RUA2_Opt:RTHOL			Athlete_3_RUA2_Opt:RTH2			Athlete_3_RUA2_Opt:RTH3			Athlete_3_RUA2_Opt:RSHAOL			Athlete_3_RUA2_Opt:RSHA2			Athlete_3_RUA2_Opt:RSHA3			Athlete_3_RUA2_Opt:RHEE			Athlete_3_RUA2_Opt:RTOE			Athlete_3_RUA2_Opt:RM5			Athlete_3_RUA2_Opt:STRN			Athlete_3_RUA2_Opt:XIPH			Athlete_3_RUA2_Opt:LACR			Athlete_3_RUA2_Opt:LUAOL			Athlete_3_RUA2_Opt:LUA2			Athlete_3_RUA2_Opt:LUA3			Athlete_3_RUA2_Opt:LLAOL			Athlete_3_RUA2_Opt:LLA2			Athlete_3_RUA2_Opt:LLA3			Athlete_3_RUA2_Opt:LWRU			Athlete_3_RUA2_Opt:RACR			Athlete_3_RUA2_Opt:RUAOL			Athlete_3_RUA2_Opt:RUA3			Athlete_3_RUA2_Opt:RLAOL			Athlete_3_RUA2_Opt:RLA2			Athlete_3_RUA2_Opt:RLA3			Athlete_3_RUA2_Opt:RWRU			USERMO0			USERMO1			USERMO2			USERMO3			USERMO4			USERMO5			
		X1	Y1	Z1	X2	Y2	Z2	X3	Y3	Z3	X4	Y4	Z4	X5	Y5	Z5	X6	Y6	Z6	X7	Y7	Z7	X8	Y8	Z8	X9	Y9	Z9	X10	Y10	Z10	X11	Y11	Z11	X12	Y12	Z12	X13	Y13	Z13	X14	Y14	Z14	X15	Y15	Z15	X16	Y16	Z16	X17	Y17	Z17	X18	Y18	Z18	X19	Y19	Z19	X20	Y20	Z20	X21	Y21	Z21	X22	Y22	Z22	X23	Y23	Z23	X24	Y24	Z24	X25	Y25	Z25	X26	Y26	Z26	X27	Y27	Z27	X28	Y28	Z28	X29	Y29	Z29	X30	Y30	Z30	X31	Y31	Z31	X32	Y32	Z32	X33	Y33	Z33	X34	Y34	Z34	X35	Y35	Z35	X36	Y36	Z36	X37	Y37	Z37	X38	Y38	Z38	X39	Y39	Z39	X40	Y40	Z40	X41	Y41	Z41	X42	Y42	Z42	X43	Y43	Z43	X44	Y44	Z44	X45	Y45	Z45	X46	Y46	Z46	X47	Y47	Z47	X48	Y48	Z48	X49	Y49	Z49	X50	Y50	Z50	X51	Y51	Z51	X52	Y52	Z52	X53	Y53	Z53	X54	Y54	Z54	X55	Y55	Z55	X56	Y56	Z56	X57	Y57	Z57	X58	Y58	Z58	

1	0	137.3728179931641	1244.182861328125	-2235.322998046875	217.8118286132812	1303.69384765625	-15.41861152648918	552.6964721679688	1325.390258789062	-1119.074951171875	510.70751953125	1375.028564453125	-1044.980712890625	513.9105224609375	1370.685424804688	-1200.557006835938	289.2119750976562	1366.574951171875	-1122.278930664062	117.2829971313477	1241.27294921875	-1126.473876953125	94.89098358154297	1211.21484375	-1132.160888671875	60.29463195800781	1157.80322265625	-1083.64697265625	70.57410430908203	1154.274047851562	-1132.43212890625	56.54618453979492	1096.950317382812	-1132.157348632812	21.0610466003418	1065.511352539062	-1130.069946289062	6.105058193206787	1007.02294921875	-1077.923461914062	2.207738637924194	1006.328247070313	-1127.927856445312	-3.312904834747314	934.4376220703126	-1154.97412109375	5.460008144378662	943.3198242187501	-1105.356689453125	-31.0501766204834	888.8818969726564	-1115.7705078125	113.4939041137695	723.6452026367189	-1381.020751953125	72.87232971191406	654.7373657226564	-1376.502075195312	118.9787445068359	663.4494628906251	-1395.572509765625	94.84945678710938	327.0282592773439	-1487.0830078125	65.47391510009766	253.7070922851563	-1491.658569335938	110.1062088012695	269.5957031250001	-1506.621948242188	71.87949371337891	37.03716278076181	-1475.873168945312	270.5547180175781	47.40089797973642	-1541.140747070312	199.5240325927734	27.15089416503916	-1631.062744140625	87.78148651123047	694.1171875	-873.1995239257812	128.0883941650391	633.6235961914062	-840.0233154296875	82.39302062988281	633.2921752929688	-861.0158081054688	57.5496826171875	316.3522338867188	-775.4803466796875	103.1849746704102	261.2482604980469	-741.0477905273438	59.72507858276367	255.6897125244141	-765.4671020507812	62.26332855224609	35.39469146728521	-789.3319702148438	258.3784790039062	46.06507110595707	-712.59521484375	190.084716796875	37.81563568115238	-628.3729858398438	357.7166442871094	1211.743774414062	-1131.948852539062	321.92431640625	1064.813598632812	-1124.709838867188	239.5586700439453	1307.517333984375	-1315.826171875	100.5347671508789	1230.477294921875	-1332.377685546875	64.42070770263672	1191.411010742188	-1293.304077148438	63.98695755004883	1188.736083984375	-1344.206787109375	40.93241882324219	1155.576904296875	-1421.489624023438	84.85505676269531	1166.415771484375	-1468.359985351562	85.51465606689453	1200.668090820312	-1431.745971679688	135.9181976318359	1237.651123046875	-1486.042602539062	257.1524963378906	1314.33544921875	-943.8381958007811	123.839469909668	1224.918212890625	-902.3825073242186	65.32357025146484	1205.017211914062	-900.7968139648436	71.97889709472656	1197.777221679688	-823.2188110351561	124.6990966796875	1235.303466796875	-827.4092407226561	112.6265335083008	1220.622436523438	-779.7317504882811	150.9158630371094	1254.945190429688	-756.8033447265624	0.008821180090308189	0.003782100044190885	-0.02648380026221275	0.009077779948711395	7.865049005547389e-19	-0.01284459978342056	0	0	0	0.0258943997323513	0.1131540015339852	-0.4822590053081512	0.05965429916977882	3.452267120888597e-19	-0.005637980066239834	0	0	0	
2	0.005	137.4929809570312	1244.426025390625	-2235.2490234375	217.8650970458984	1303.711669921875	-15.32877922058097	552.8226318359375	1325.763061523438	-1119.031127929688	510.7516479492188	1375.277954101562	-1044.89453125	513.8995361328125	1371.021240234375	-1200.475463867188	289.2444458007812	1366.614624023438	-1122.153198242188	117.3506088256836	1241.284790039062	-1126.371704101562	94.96016693115234	1211.2255859375	-1132.052978515625	60.3699836730957	1157.80810546875	-1083.541259765625	70.64684295654297	1154.282958984375	-1132.326782226562	56.62708282470703	1096.96337890625	-1132.053100585938	21.14083099365234	1065.52880859375	-1129.968627929688	6.196661472320557	1007.038269042969	-1077.822631835938	2.291916370391846	1006.345031738281	-1127.825561523438	-3.225137948989868	934.4481201171876	-1154.878295898438	5.558640003204346	943.3224487304689	-1105.270141601562	-30.95777130126953	888.8908691406251	-1115.689331054688	113.3783187866211	723.6196289062501	-1380.93115234375	72.76805877685547	654.7163085937501	-1376.357055664062	118.8419036865234	663.4184570312501	-1395.47998046875	94.74119567871094	326.9968872070314	-1486.984497070312	65.41082763671875	253.6575622558595	-1491.545166015625	110.0202255249023	269.5770874023439	-1506.539428710938	71.99691772460938	37.02157592773447	-1475.783935546875	270.5858154296875	47.40585327148447	-1541.209716796875	199.5024108886719	27.13183403015147	-1631.072265625	88.08954620361328	694.1508178710938	-873.0930786132812	128.3843536376953	633.6181640625	-839.9678955078125	82.66044616699219	633.3320922851562	-860.8860473632812	57.65610885620117	316.3889465332032	-775.3466186523438	103.3012008666992	261.2595825195313	-740.9702758789062	59.81087112426758	255.7251129150391	-765.3338623046875	62.2542724609375	35.38864517211919	-789.3272705078125	258.3753967285156	46.06288146972661	-712.5894165039062	190.0778350830078	37.8074989318848	-628.3645629882812	357.7609252929688	1211.791870117188	-1131.85009765625	322.0029602050781	1064.846923828125	-1124.634643554688	239.6298828125	1307.557861328125	-1315.732543945312	100.6241302490234	1230.50341796875	-1332.245849609375	64.49656677246094	1191.418579101562	-1293.216430664062	64.05846405029297	1188.766235351562	-1344.115356445312	41.02792739868164	1155.619995117188	-1421.4052734375	84.92543029785156	1166.477416992188	-1468.287719726562	85.57772064208984	1200.7275390625	-1431.670288085938	135.9829711914062	1237.721923828125	-1485.95654296875	257.2130737304688	1314.353393554688	-943.7299194335936	123.8898162841797	1224.921508789062	-902.2885131835936	65.40071868896484	1205.01123046875	-900.7000732421874	72.03153228759766	1197.757080078125	-823.1371459960936	124.7441101074219	1235.295288085938	-827.3305053710936	112.6849899291992	1220.603515625	-779.6575927734374	150.9919586181641	1254.93994140625	-756.7313232421874	0.01391930039972067	0.005581319797784092	-0.03160480037331581	0.009554070420563221	0.0003681310045067234	-0.02130359970033169	0	0	0	0.04421810060739517	0.1300320029258728	-0.5269920229911804	0.1032230034470558	0.1831459999084473	-0.05742710083723067	0.1555649936199188	0	0	
3	0.01	137.6294097900391	1244.703857421875	-2235.166015625	217.9239501953125	1303.733520507812	-15.22827529907219	552.9693603515625	1326.200317382812	-1118.984619140625	510.8014831542969	1375.569213867188	-1044.799438476562	513.8858032226562	1371.414184570312	-1200.384765625	289.2813110351562	1366.658569335938	-1122.013671875	117.4292221069336	1241.297729492188	-1126.257446289062	95.04027557373047	1211.237060546875	-1131.931884765625	60.45824813842773	1157.812866210938	-1083.421875	70.73149108886719	1154.292114257812	-1132.207885742188	56.72088623046875	1096.977294921875	-1131.935546875	21.2334098815918	1065.547607421875	-1129.853881835938	6.303276062011719	1007.054504394531	-1077.7080078125	2.389307975769043	1006.363098144531	-1127.70947265625	-3.125353097915649	934.4584350585939	-1154.77001953125	5.672146797180176	943.3242187500001	-1105.170654296875	-30.84908294677734	888.8982543945314	-1115.593505859375	113.2686386108398	723.5911254882814	-1380.831787109375	72.66634368896484	654.6937255859376	-1376.201904296875	118.7089691162109	663.3843383789064	-1395.376708984375	94.63113403320312	326.964080810547	-1486.880126953125	65.34629058837891	253.6065216064454	-1491.42822265625	109.9333648681641	269.5577392578126	-1506.451293945312	72.12107849121094	37.00389099121103	-1475.6904296875	270.618408203125	47.41148376464853	-1541.283447265625	199.4795532226562	27.11143112182627	-1631.082641601562	88.44033050537109	694.189208984375	-872.9715576171875	128.7221527099609	633.6126708984375	-839.9055786132812	82.96609497070312	633.3768920898438	-860.740966796875	57.7808952331543	316.4305419921876	-775.1929931640625	103.4358520507812	261.2720336914063	-740.8809204101562	59.9116096496582	255.7648620605469	-765.183349609375	62.24565124511719	35.38261032104497	-789.322265625	258.3720092773438	46.059986114502	-712.5819702148438	190.0699157714844	37.79770660400394	-628.3543090820312	357.8128051757812	1211.846923828125	-1131.74169921875	322.0936889648438	1064.88525390625	-1124.554809570312	239.7114868164062	1307.604370117188	-1315.628784179688	100.7227325439453	1230.533447265625	-1332.101806640625	64.58317565917969	1191.427856445312	-1293.1181640625	64.13975524902344	1188.801635742188	-1344.012939453125	41.13303756713867	1155.671997070312	-1421.312866210938	85.00554656982422	1166.549072265625	-1468.20654296875	85.64974975585938	1200.796508789062	-1431.585327148438	136.0572357177734	1237.803833007812	-1485.859741210938	257.2841186523438	1314.37451171875	-943.6104125976561	123.9513397216797	1224.925537109375	-902.1865234374999	65.49372100830078	1205.004150390625	-900.5892944335936	72.09337615966797	1197.73486328125	-823.0464477539061	124.7972793579102	1235.286865234375	-827.2427978515624	112.7524719238281	1220.582885742188	-779.5745849609374	151.078369140625	1254.933837890625	-756.6500854492186	0.01905220001935959	0.007293140050023797	-0.03652650117874146	0.01001089997589588	0.00944516994059086	-0.02943040058016777	0	0.01275740005075932	-0.0009814610239118329	0.06238630041480064	0.1468649953603745	-0.5715910196304321	0.1453189998865128	0.6214140057563782	-0.1073860004544258	0.572625994682312	0	0	
4	0.015	137.780517578125	1245.013549804688	-2235.07568359375	217.9871978759766	1303.759521484375	-15.11872386932365	553.1360473632812	1326.701416015625	-1118.936889648438	510.8563842773438	1375.90185546875	-1044.697509765625	513.869140625	1371.86328125	-1200.286254882812	289.322265625	1366.7060546875	-1121.862670898438	117.5184860229492	1241.311157226562	-1126.132934570312	95.13086700439453	1211.248901367188	-1131.799560546875	60.55917358398438	1157.817138671875	-1083.29052734375	70.82767486572266	1154.30126953125	-1132.077270507812	56.82710647583008	1096.991821289062	-1131.806274414062	21.33832359313965	1065.567260742188	-1129.726928710938	6.424475193023682	1007.071105957031	-1077.581298828125	2.499402523040771	1006.381896972656	-1127.5810546875	-3.014358997344971	934.4677124023439	-1154.650512695312	5.799703121185303	943.3249511718751	-1105.059204101562	-30.72429656982422	888.9031982421876	-1115.4833984375	113.1729278564453	723.5603027343751	-1380.724853515625	72.57386779785156	654.6702270507814	-1376.041259765625	118.5885620117188	663.3477783203126	-1395.264282226562	94.52450561523438	326.9309692382814	-1486.773071289062	65.28330993652344	253.5560455322266	-1491.3125	109.8499298095703	269.538299560547	-1506.360229492188	72.24793243408203	36.98428344726572	-1475.596069335938	270.6513977050781	47.41769790649423	-1541.359375	199.4561004638672	27.09043312072764	-1631.093505859375	88.82982635498047	694.2318725585938	-872.8363647460938	129.0980987548828	633.6075439453125	-839.837158203125	83.30686950683594	633.4258422851562	-860.5829467773438	57.92400360107422	316.4767761230469	-775.0203857421875	103.5885467529297	261.2854919433594	-740.7803344726562	60.02730178833008	255.808334350586	-765.0173950195312	62.23807525634766	35.37693023681646	-789.317138671875	258.3684387207031	46.05630493164067	-712.5728149414062	190.06103515625	37.78620910644535	-628.3421020507812	357.8721008300781	1211.908203125	-1131.6259765625	322.1959533691406	1064.92822265625	-1124.47265625	239.8028411865234	1307.656616210938	-1315.516967773438	100.8289108276367	1230.567260742188	-1331.948120117188	64.67967224121094	1191.438842773438	-1293.0107421875	64.22984313964844	1188.842163085938	-1343.901123046875	41.24578475952148	1155.733032226562	-1421.213989257812	85.09439086914062	1166.630615234375	-1468.117797851562	85.72992706298828	1200.874877929688	-1431.492431640625	136.1403045654297	1237.896484375	-1485.753540039062	257.3654174804688	1314.398803710938	-943.4819335937499	124.0242233276367	1224.930908203125	-902.0787963867186	65.60381317138672	1204.996704101562	-900.4655761718749	72.16429138183594	1197.7109375	-822.9483642578124	124.8584976196289	1235.278442382812	-827.1477050781249	112.8286056518555	1220.560913085938	-779.4841918945311	151.1746215820312	1254.92724609375	-756.5611572265624	0.02414759993553162	0.008872680366039278	-0.04106960073113441	0.01042789965867996	0.01738760061562062	-0.03701870143413544	0.0001763559994287789	0.03110180050134659	-0.003826630068942903	0.08003640174865723	0.163224995136261	-0.6146619915962219	0.1848450005054474	1.031030058860779	-0.1543010026216506	0.96145099401474	0	0	
